<?xml version="1.0" encoding="utf-8"?>
<!-- Generator: Adobe Illustrator 25.2.1, SVG Export Plug-In . SVG Version: 6.00 Build 0)  -->
<svg version="1.1" id="Layer_1" xmlns="http://www.w3.org/2000/svg" xmlns:xlink="http://www.w3.org/1999/xlink" x="0px" y="0px"
	 viewBox="0 0 30 30" style="enable-background:new 0 0 30 30;" xml:space="preserve">
<style type="text/css">
	.st0{fill:#DEDBC2;}
</style>
<path class="st0" d="M25.6,0H4.4C2,0,0,2,0,4.4v21.2C0,28,2,30,4.4,30h21.2c2.4,0,4.4-2,4.4-4.4V4.4C30,2,28,0,25.6,0z M10.6,23.8
	H7.1V11.5h3.5V23.8z M10.6,9.7H7.1V6.2h3.5V9.7z M22.9,23.8h-3.5v-7c0-1-0.8-1.8-1.8-1.8c-1,0-1.8,0.8-1.8,1.8v7h-3.5V11.5h3.5v0.7
	c0.9-0.3,1.5-0.7,2.6-0.7c2.4,0,4.4,2.1,4.4,4.7V23.8z"/>
</svg>
